<?xml version="1.0" encoding="UTF-8"?>
<svg id="Layer_2" data-name="Layer 2" xmlns="http://www.w3.org/2000/svg" viewBox="0 0 91.8 89.36">
  <defs>
    <style>
      .cls-1 {
        fill: #bdbec1;
      }

      .cls-2 {
        fill: #010101;
      }
    </style>
  </defs>
  <g id="Layer_24" data-name="Layer 24">
    <path class="cls-2" d="M66.24,85.68c-.92-.61-2.14-.31-2.75.61-.61.92-.15,2.14.61,2.75.92.61,2.14.31,2.75-.61.61-1.07.31-2.3-.61-2.75Z"/>
  </g>
  <g id="Layer_23" data-name="Layer 23">
    <path class="cls-2" d="M17.41,74.42c-.92-.61-2.14-.31-2.75.61-.61.92-.15,2.14.61,2.75.92.61,2.14.31,2.75-.61.61-1.07.31-2.3-.61-2.75Z"/>
  </g>
  <g id="Layer_22" data-name="Layer 22">
    <path class="cls-2" d="M31.36,74.42c-.92-.61-2.14-.31-2.75.61-.61.92-.15,2.14.61,2.75.92.61,2.14.31,2.75-.61.61-1.07.31-2.3-.61-2.75Z"/>
  </g>
  <g id="Layer_21" data-name="Layer 21">
    <path class="cls-2" d="M45.31,74.42c-.92-.61-2.14-.31-2.75.61-.61.92-.15,2.14.61,2.75.92.61,2.14.31,2.75-.61.61-1.07.31-2.3-.61-2.75Z"/>
  </g>
  <g id="Layer_20" data-name="Layer 20">
    <path class="cls-2" d="M59.26,74.42c-.92-.61-2.14-.31-2.75.61-.61.92-.15,2.14.61,2.75.92.61,2.14.31,2.75-.61.61-1.07.31-2.3-.61-2.75Z"/>
  </g>
  <g id="Layer_19" data-name="Layer 19">
    <path class="cls-2" d="M73.21,74.42c-.92-.61-2.14-.31-2.75.61-.61.92-.15,2.14.61,2.75.92.61,2.14.31,2.75-.61.61-1.07.31-2.3-.61-2.75Z"/>
  </g>
  <g id="Layer_18" data-name="Layer 18">
    <path class="cls-2" d="M24.39,85.68c-.92-.61-2.14-.31-2.75.61-.61.92-.15,2.14.61,2.75.92.61,2.14.31,2.75-.61.61-1.07.31-2.3-.61-2.75Z"/>
  </g>
  <g id="Layer_17" data-name="Layer 17">
    <path class="cls-2" d="M38.34,85.68c-.92-.61-2.14-.31-2.75.61-.61.92-.15,2.14.61,2.75.92.61,2.14.31,2.75-.61.61-1.07.31-2.3-.61-2.75Z"/>
  </g>
  <g id="Layer_16" data-name="Layer 16">
    <path class="cls-2" d="M52.29,85.68c-.92-.61-2.14-.31-2.75.61-.61.92-.15,2.14.61,2.75.92.61,2.14.31,2.75-.61.61-1.07.31-2.3-.61-2.75Z"/>
  </g>
  <g id="Layer_15" data-name="Layer 15">
    <g>
      <path class="cls-2" d="M70.68,22.95c-.92-12.85-11.63-22.95-24.79-22.95s-23.87,10.1-24.79,22.95C9.33,23.87,0,33.81,0,45.9c0,12.7,10.25,22.95,22.95,22.95h45.9c12.7,0,22.95-10.25,22.95-22.95s-9.33-21.88-21.11-22.95Z"/>
      <path class="cls-1" d="M68.85,65.02H22.95c-10.56,0-19.13-8.57-19.13-19.12s8.57-19.12,19.13-19.12c1.07,0,1.99-.92,1.99-1.99,0-11.63,9.49-21.11,21.11-21.11s20.96,9.49,20.96,20.96c0,.31-.31,3.67-2.14,7.34-2.75,5.35-7.34,8.57-13.62,10.1-1.07.31-1.68,1.22-1.38,2.29.31,1.07,1.22,1.68,2.29,1.38,9.33-2.3,13.92-7.8,16.22-12.09,1.38-2.75,1.99-5.35,2.29-6.88,9.64.92,17.29,9.18,17.29,19.12,0,10.56-8.57,19.12-19.12,19.12Z"/>
      <path class="cls-2" d="M44.06,9.64c-3.37,0-6.73,1.84-9.49,5.05-2.29,2.75-3.82,5.97-3.82,8.41,0,1.07.92,1.99,1.99,1.99s1.99-.92,1.99-1.99c0-2.75,4.28-9.64,9.64-9.64,1.07,0,1.99-.92,1.99-1.99-.46-1.07-1.38-1.84-2.3-1.84Z"/>
    </g>
  </g>
</svg>